<?xml version="1.0" encoding="UTF-8"?>
<svg id="Layer_2" xmlns="http://www.w3.org/2000/svg" xmlns:xlink="http://www.w3.org/1999/xlink" viewBox="0 0 289.2 308.64">
  <defs>
    <style>
      .cls-1 {
        fill: #0e5da9;
        filter: url(#drop-shadow-1);
      }
    </style>
    <filter id="drop-shadow-1" x="0" y="0" width="289.2" height="308.64" filterUnits="userSpaceOnUse">
      <feOffset dx="7" dy="7"/>
      <feGaussianBlur result="blur" stdDeviation="5"/>
      <feFlood flood-color="#1d1d1b" flood-opacity=".45"/>
      <feComposite in2="blur" operator="in"/>
      <feComposite in="SourceGraphic"/>
    </filter>
  </defs>
  <g id="colored">
    <g id="_x33_">
      <path class="cls-1" d="M15,8.14c-.2.08-.6.33-.95.75-.71.86-.73,1.91-.73,2.5,0,1.97,0,4.77.11,8.18.05,2.21.17,5.23.46,8.82.56,6.92,1.45,12.18,2.07,15.86.53,3.1,1.27,7.06,2.32,11.64,1.06,3.87,2.12,7.74,3.18,11.61,1.7,4.74,3.41,9.48,5.1,14.21,2.3,4.6,4.6,9.19,6.89,13.78,2.83,4.29,6.44,9.12,11,14.07,5.57,6.04,11.12,10.7,15.93,14.21,3,2.02,6.19,4.05,9.57,6.07,2.35,1.41,4.66,2.73,6.93,3.97,4.22,2.12,8.45,4.24,12.68,6.36,2.77,1.41,4.91,2.39,6.42,3.03.96.41,2.34.98,3.6,2.31.55.57,1.18,1.27,1.44,2.35.29,1.22-.09,2.24-.6,3.65-.28.75-.75,1.83-1.57,3-1.52,1.94-3.06,4.01-4.61,6.22-1.65,2.35-3.16,4.64-4.54,6.86-1.56,2.31-3.14,4.78-4.71,7.39-1.41,2.35-2.73,4.66-3.93,6.89-1.48,2.64-2.54,4.85-3.21,6.32-1.01,2.21-1.18,2.82-3.82,9.36-1.63,4.02-1.72,4.18-2.36,5.86-1.45,3.81-1.83,5.29-2.46,6.96-.97,2.58-2.73,6.14-6.15,10.15-2.92,3.77-5.83,7.55-8.75,11.32-5.56,6.26-11.12,12.52-16.68,18.79-5.66,6.09-11.31,12.19-16.97,18.28-3.23,3.81-6.47,7.62-9.7,11.42-1.21,1.63-3.62,5.08-2.76,6.04.2.23.88.66,4.64-1.08,2.91-1.35,7.01-3.72,11.47-8.03,3.47-2.84,6.93-5.66,10.4-8.5l14.86-13.57c4.02-3.87,8.05-7.74,12.07-11.61,4.55-4.11,5.99-4.51,6.47-4.14.56.43-.11,1.95-1.11,5.54-1.07,3.84-2.4,8.65-1.57,9.07.71.36,2.67-2.68,7.35-8.36,2.22-2.69,4.11-4.83,5.36-6.22,2.69-2.79,5.53-5.63,8.52-8.48,1.84-1.76,3.67-3.45,5.48-5.09,2.7-2.23,5.75-4.55,9.18-6.86,3-2.02,5.91-3.77,8.64-5.28,2.87-1.46,6.11-2.91,9.71-4.25,5.58-2.07,10.76-3.38,15.25-4.22,4.74-1.62,10.52-4.1,16.65-7.97,4.16-2.63,7.63-5.36,10.47-7.89,3.32-3.24,7.1-7.52,10.68-12.97,5.32-8.1,8.2-15.81,9.82-21.54,1.26-4.43,3.24-10.65,6.29-17.86,3.03-7.18,5.5-13.03,10.4-19.93,6.45-9.1,13.17-14.45,14.9-15.79,6.87-5.34,13.47-8.43,18.14-10.22,5.75-2.75,10.59-4.37,14-5.36,2.4-.69,6.18-1.67,13.86-3.82,4.87-1.37,6.92-1.97,6.86-2.32-.1-.6-6.4-.05-7.71.07-6.29.56-15.31,1.91-26.89,5.43-3.93,1.07-7.86,2.14-11.78,3.21-1.74.68-4.09,1.23-6.15.25-1.52-.73-1.97-1.87-3.07-3.29-3.32-4.23-8.4-5.51-9.79-5.86-3.48-.88-6.2-.28-10.12.57,0,0-9.8,2.14-17.71,8.8-2.67,2.25-3.61,3.14-3.61,3.14-2.81,2.66-3.2,3.56-4.11,3.57-1.45.02-2.46-2.19-5.1-8.33-4.52-10.5-5.28-12.68-6-14.97-.88-2.82-1.5-5.18-1.89-6.79-2.03-8.12-4.42-14.3-6.32-18.57-.95-2.12-1-2.05-6.43-13.64-1.1-2.35-2.24-4.69-3.36-7.03-4.69-9.88-5.34-11.47-6.49-11.51-2.66-.11-5.05,8.27-6.02,12.05-1.2,4.65-2.4,9.31-3.61,13.96-1.39,6.99-2.46,12.3-3.11,15.47-.92,4.53-1.74,8.51-2.18,14.03-.4,5.1-.15,7.5.36,9.68.33,1.41,1.13,4.66,3.47,8,1.12,1.6,2.37,2.89,3.88,4.47,1.08,1.13,2.33,2.33,4.22,4.38,1.4,1.52,2.1,2.28,2,2.39-.35.44-8.69-5.79-9.5-6.39-8.59-6.42-12.7-10.22-18.07-14.61-5.24-4.29-11.48-8.62-23.97-17.29-10.15-7.05-12.13-8.12-17.79-12.47-6.8-5.23-12.04-9.91-15.39-13.04-1.68-1.43-4.01-3.47-6.71-6-1.04-.97-3.28-3.09-6.11-5.97-6.69-6.8-10.03-10.2-10.61-10.82-1.45-1.58-4.69-5.14-6.32-4.43h-.02Z"/>
    </g>
  </g>
</svg>