<?xml version="1.0" encoding="UTF-8"?>
<svg id="Layer_2" xmlns="http://www.w3.org/2000/svg" xmlns:xlink="http://www.w3.org/1999/xlink" viewBox="0 0 408.84 409.33">
  <defs>
    <style>
      .cls-1 {
        fill: #0e5da9;
        filter: url(#drop-shadow-1);
      }

      .cls-2 {
        fill: #1d1d1b;
      }
    </style>
    <filter id="drop-shadow-1" x="87.24" y="57.57" width="289.2" height="308.88" filterUnits="userSpaceOnUse">
      <feOffset dx="7" dy="7"/>
      <feGaussianBlur result="blur" stdDeviation="5"/>
      <feFlood flood-color="#1d1d1b" flood-opacity=".45"/>
      <feComposite in2="blur" operator="in"/>
      <feComposite in="SourceGraphic"/>
    </filter>
  </defs>
  <g id="black">
    <g id="colored_copy">
      <g id="_x32__copy">
        <g id="Layer_4_copy">
          <g id="Layer_5_copy">
            <path class="cls-2" d="M405.62,168.67c-6.84-38.81-23.74-72.76-50.28-101.8-29.57-32.36-65.87-53.6-108.81-62.31-57.51-11.66-111-1-159.22,32.69C45.84,66.22,17.77,105.43,6.39,154.75c-18.62,80.7,3.59,149.53,65.16,204.92,29.69,26.72,65.25,41.79,104.73,47.59,5.51.81,11.05,1.35,16.57,2.07,8.12-.04,16.12-.08,24.24-.12,7.64-1.11,15.31-2.01,22.91-3.31,33.1-5.63,62.93-18.89,89.32-39.54,40.64-31.8,66.01-73.16,76.04-123.81,1.36-6.88,1.82-13.94,2.74-20.91.15-1.15.49-2.29.74-3.43v-27.16c-1.06-7.46-1.91-14.96-3.22-22.38ZM321.07,60.01c-11.46,7.29-22.4,14.24-33.71,21.42-8.54-20.82-18.72-39.65-33.74-55.65,24.71,6.4,46.75,17.87,67.45,34.23ZM211.17,19.34c8.23,1.39,15.33,5.05,21.67,10.09,19,15.11,30.09,35.62,39.31,57.89-19.74,7.81-39.87,12.12-60.98,12.97V19.34ZM176.24,27.38c5.52-3.66,11.91-6.01,18.59-9.29v82.2c-21.06-.86-41.14-5.14-61.31-13.07,4-8.11,7.6-16.21,11.88-23.92,7.8-14.05,17.24-26.92,30.84-35.92ZM153,25.77c-15.67,16.13-25.79,34.85-34.32,55.65-11.27-7.15-22.2-14.08-33.24-21.08,11.06-12.14,53.02-33.58,67.56-34.57ZM72.39,70.98c13.38,8.19,26.11,16.07,38.95,23.78,2.22,1.33,1.39,2.67,1,4.34-3.63,15.61-8.02,31.11-10.58,46.9-2.81,17.28-3.92,34.83-5.81,52.66H14.6c2.85-50.36,22.43-92.98,57.79-127.68ZM14.57,215.08h82.09c.2,3.46.43,6.98.6,10.51,1.44,30.51,5.98,60.48,15.18,89.68.33,1.02-.17,3.06-.96,3.55-12.8,8.02-25.71,15.86-39.07,24.04-35.31-34.52-54.91-77.17-57.84-127.78ZM84.99,353.85c11.47-7.31,22.29-14.2,33.67-21.45,8.52,20.83,18.78,39.69,33.79,55.72-24.68-6.44-46.71-17.87-67.46-34.27ZM194.74,394.55c-10.05-1.95-18.49-6.95-25.91-13.73-16.14-14.76-26.41-33.37-34.51-53.36-.09-.22-.01-.52-.01-1.14,19.44-7.58,39.4-11.91,60.43-12.76v80.99ZM112.79,215.16l.02-16.44c.93-30.3,6.77-64.19,17.01-93.45h149.21c10.26,29.17,13.2,63.04,14.22,93.45v16.4c-1.02,32.92-5.39,64.87-15.43,95.73-9.59-2.69-49.54-5.74-67.75-8.03-5.08-.64-10.23-.58-15.3.19l-66.35,8.49c-10.26-31.61-14.64-63.55-15.63-96.34M229.77,386.48c-5.51,3.65-11.9,6-18.57,9.27v-82.19c21.07.83,41.13,5.18,61.32,13.08-4.01,8.11-7.61,16.2-11.89,23.92-7.8,14.05-17.27,26.91-30.86,35.92ZM253.59,388.12c14.96-16.03,25.26-34.78,33.74-55.72,11.3,7.18,22.22,14.13,33.7,21.43-20.66,16.41-42.73,27.83-67.44,34.29ZM333.16,343.33c-9.37-6.27-18.29-12.36-27.38-18.22-3.05-1.97-6.22-3.77-9.54-5.23-2.56-1.12-3.6-2.12-2.76-4.7,6.35-19.5,10.52-39.49,12.75-59.85,1.32-12.02,1.94-24.11,2.87-36.17.1-1.3.14-2.6.22-4.06h82.13c-2.91,50.62-22.56,93.25-58.29,128.23ZM309.45,198.71c-.59-8.63-1.12-17.22-1.76-25.8-1.87-24.98-6.4-49.47-13.91-73.38-.91-2.9-.31-4,2.25-5.53,12.42-7.39,24.65-15.09,37.55-23.06,35.37,34.64,54.93,77.25,57.88,127.77h-82.01Z"/>
            <polygon class="cls-2" points="295.43 198.77 295.43 215.12 110.25 215.12 110.25 198.72 295.43 198.77"/>
            <path class="cls-2" d="M260.09,310.3h-45.99v-1.78c3.48-.36,5.99-.95,7.53-1.78,1.44-.77,2.6-1.97,3.48-3.59.88-1.62,1.32-3.39,1.32-5.3,0-1.34-.12-2.53-.35-3.56-.23-1.03-.93-3.27-2.09-6.73l-20.62-62.23-20,54.58c-2.79,7.68-4.18,13.27-4.18,16.78,0,1.96.28,3.79.84,5.49.56,1.7,1.3,3.01,2.23,3.94.93.88,1.95,1.49,3.07,1.86,1.12.36,2.56.54,4.32.54v1.78h-31.01v-1.78c2.55-.26,4.77-.95,6.65-2.09,1.88-1.13,3.68-2.86,5.4-5.18,1.16-1.65,2.38-3.9,3.66-6.76,1.28-2.86,3.03-7.28,5.26-13.26l28.57-76.46h2.93l27.73,79.01c3.62,10.36,6.53,16.93,8.71,19.71,1.39,1.75,3.1,3.03,5.12,3.83,2.02.8,4.49,1.2,7.42,1.2v1.78Z"/>
            <path class="cls-2" d="M152.51,99.78h45.99v1.78c-3.48.36-5.99.95-7.53,1.78-1.44.77-2.6,1.97-3.48,3.59-.88,1.62-1.32,3.39-1.32,5.3,0,1.34.12,2.53.35,3.56.23,1.03.93,3.27,2.09,6.73l20.62,62.23,20-54.58c2.79-7.68,4.18-13.27,4.18-16.78,0-1.96-.28-3.79-.84-5.49-.56-1.7-1.3-3.01-2.23-3.94-.93-.88-1.95-1.49-3.07-1.86-1.12-.36-2.56-.54-4.32-.54v-1.78h31.01v1.78c-2.55.26-4.77.95-6.65,2.09-1.88,1.13-3.68,2.86-5.4,5.18-1.16,1.65-2.38,3.9-3.66,6.76-1.28,2.86-3.03,7.28-5.26,13.26l-28.57,76.46h-2.93l-27.73-79.01c-3.62-10.36-6.53-16.93-8.71-19.71-1.39-1.75-3.1-3.03-5.12-3.83-2.02-.8-4.49-1.2-7.42-1.2v-1.78Z"/>
          </g>
          <path class="cls-1" d="M102.33,65.8c-.2.08-.6.33-.95.75-.71.86-.73,1.91-.73,2.5,0,1.97,0,4.77.11,8.18.05,2.21.17,5.23.46,8.82.56,6.92,1.45,12.18,2.07,15.86.53,3.1,1.27,7.06,2.32,11.64,1.06,3.87,2.12,7.74,3.18,11.61,1.7,4.74,3.41,9.48,5.1,14.21,2.3,4.6,4.6,9.19,6.89,13.78,2.83,4.29,6.44,9.12,11,14.07,5.57,6.04,11.12,10.7,15.93,14.21,3,2.02,6.19,4.05,9.57,6.07,2.35,1.41,4.66,2.73,6.93,3.97,4.22,2.12,8.45,4.24,12.68,6.36,2.77,1.41,4.91,2.39,6.42,3.03.96.41,2.34.98,3.6,2.31.55.57,1.18,1.27,1.44,2.35.29,1.22-.09,2.24-.6,3.65-.28.75-.75,1.83-1.57,3-1.52,1.94-3.06,4.01-4.61,6.22-1.65,2.35-3.16,4.64-4.54,6.86-1.56,2.31-3.14,4.78-4.71,7.39-1.41,2.35-2.73,4.66-3.93,6.89-1.48,2.64-2.54,4.85-3.21,6.32-1.01,2.21-1.18,2.82-3.82,9.36-1.63,4.02-1.72,4.18-2.36,5.86-1.45,3.81-1.83,5.29-2.46,6.96-.97,2.58-2.73,6.14-6.15,10.15-2.92,3.77-5.83,7.55-8.75,11.32-5.56,6.26-11.12,12.52-16.68,18.79-5.66,6.09-11.31,12.19-16.97,18.28-3.23,3.81-6.47,7.62-9.7,11.42-1.21,1.63-3.62,5.08-2.76,6.04.2.23.88.66,4.64-1.08,2.91-1.35,7.01-3.72,11.47-8.03,3.47-2.84,6.93-5.66,10.4-8.5l14.86-13.57c4.02-3.87,8.05-7.74,12.07-11.61,4.55-4.11,5.99-4.51,6.47-4.14.56.43-.11,1.95-1.11,5.54-1.07,3.84-2.4,8.65-1.57,9.07.71.36,2.67-2.68,7.35-8.36,2.22-2.69,4.11-4.83,5.36-6.22,2.69-2.79,5.53-5.63,8.52-8.48,1.84-1.76,3.67-3.45,5.48-5.09,2.7-2.23,5.75-4.55,9.18-6.86,3-2.02,5.91-3.77,8.64-5.28,2.87-1.46,6.11-2.91,9.71-4.25,5.58-2.07,10.76-3.38,15.25-4.22,4.74-1.62,10.52-4.1,16.65-7.97,4.16-2.63,7.63-5.36,10.47-7.89,3.32-3.24,7.1-7.52,10.68-12.97,5.32-8.1,8.2-15.81,9.82-21.54,1.26-4.43,3.24-10.65,6.29-17.86,3.03-7.18,5.5-13.03,10.4-19.93,6.45-9.1,13.17-14.45,14.9-15.79,6.87-5.34,13.47-8.43,18.14-10.22,5.75-2.75,10.59-4.37,14-5.36,2.4-.69,6.18-1.67,13.86-3.82,4.87-1.37,6.92-1.97,6.86-2.32-.1-.6-6.4-.05-7.71.07-6.29.56-15.31,1.91-26.89,5.43-3.93,1.07-7.86,2.14-11.78,3.21-1.74.68-4.09,1.23-6.15.25-1.52-.73-1.97-1.87-3.07-3.29-3.32-4.23-8.4-5.51-9.79-5.86-3.48-.88-6.2-.28-10.12.57,0,0-9.8,2.14-17.71,8.8-2.67,2.25-3.61,3.14-3.61,3.14-2.81,2.66-3.2,3.56-4.11,3.57-1.45.02-2.46-2.19-5.1-8.33-4.52-10.5-5.28-12.68-6-14.97-.88-2.82-1.5-5.18-1.89-6.79-2.03-8.12-4.42-14.3-6.32-18.57-.95-2.12-1-2.05-6.43-13.64-1.1-2.35-2.24-4.69-3.36-7.03-4.69-9.88-5.34-11.47-6.49-11.51-2.66-.11-5.05,8.27-6.02,12.05-1.2,4.65-2.4,9.31-3.61,13.96-1.39,6.99-2.46,12.3-3.11,15.47-.92,4.53-1.74,8.51-2.18,14.03-.4,5.1-.15,7.5.36,9.68.33,1.41,1.13,4.66,3.47,8,1.12,1.6,2.37,2.89,3.88,4.47,1.08,1.13,2.33,2.33,4.22,4.38,1.4,1.52,2.1,2.28,2,2.39-.35.44-8.69-5.79-9.5-6.39-8.59-6.42-12.7-10.22-18.07-14.61-5.24-4.29-11.48-8.62-23.97-17.29-10.15-7.05-12.13-8.12-17.79-12.47-6.8-5.23-12.04-9.91-15.39-13.04-1.68-1.43-4.01-3.47-6.71-6-1.04-.97-3.28-3.09-6.11-5.97-6.69-6.8-10.03-10.2-10.61-10.82-1.45-1.58-4.69-5.14-6.32-4.43h-.02Z"/>
        </g>
      </g>
    </g>
  </g>
</svg>