<?xml version="1.0" encoding="UTF-8"?>
<svg id="Layer_2" xmlns="http://www.w3.org/2000/svg" xmlns:xlink="http://www.w3.org/1999/xlink" viewBox="0 0 409.75 410.22">
  <defs>
    <style>
      .cls-1 {
        fill: #0e5da9;
        filter: url(#drop-shadow-1);
      }

      .cls-2 {
        fill: #fff;
        stroke: #1d1d1b;
        stroke-miterlimit: 10;
      }
    </style>
    <filter id="drop-shadow-1" x="87.27" y="58.12" width="289.2" height="308.88" filterUnits="userSpaceOnUse">
      <feOffset dx="7" dy="7"/>
      <feGaussianBlur result="blur" stdDeviation="5"/>
      <feFlood flood-color="#1d1d1b" flood-opacity=".45"/>
      <feComposite in2="blur" operator="in"/>
      <feComposite in="SourceGraphic"/>
    </filter>
  </defs>
  <g id="Layer_14">
    <g>
      <path class="cls-2" d="M199.62.5c2.16,0,4.32,0,6.48,0,.26.07.51.19.77.19,13.74.18,27.31,1.86,40.76,4.63,18.28,3.76,35.73,9.88,52.26,18.59,19.33,10.18,36.39,23.33,51.55,39.02,16.23,16.81,29.46,35.67,39.25,56.92,9.58,20.79,14.99,42.7,17.62,65.36.23,2,.63,3.98.95,5.97v27.82c-.4,2.01-.96,4.01-1.17,6.04-.99,9.74-2.42,19.4-4.82,28.91-5.74,22.81-14.77,44.16-27.79,63.79-11.35,17.12-25.11,32.04-40.9,45.13-19.24,15.94-40.58,28.11-64.31,36.02-11.08,3.7-22.41,6.43-33.97,8.08-7.58,1.08-15.11,2.75-22.82,2.66-8.82-.09-17.63.49-26.46-.6-12.7-1.56-25.28-3.64-37.63-7.04-23.42-6.44-45.04-16.62-64.47-31.26-14.88-11.21-28.02-24.26-39.79-38.67C20.37,301.77,5.22,267.39,1.43,228.23c-1.32-13.65-1.2-27.29.13-40.92.96-9.86,2.59-19.62,4.71-29.31,3.97-18.21,10.24-35.56,19.18-51.93,13.07-23.92,30.7-43.93,52.11-60.67,20.28-15.86,42.47-28.18,67.1-35.92C162.25,3.94,180.28,1,198.73.69c.3,0,.59-.13.88-.19ZM72.57,71.07c-35.68,35.13-54.82,77.58-57.72,127.43h81.18c.05-.19.1-.3.11-.42.97-9.94,1.81-19.89,2.93-29.81.97-8.61,1.77-17.27,3.5-25.74,3-14.73,6.64-29.33,10.05-43.98.54-2.33.43-2.76-1.63-4.01-6.89-4.19-13.79-8.37-20.67-12.57-5.89-3.6-11.77-7.22-17.75-10.89ZM72.57,343.02c.35-.2.63-.35.9-.51,12.35-7.59,24.69-15.19,37.03-22.79,2.12-1.31,2.56-2.53,1.82-4.92-4.65-14.92-8.1-30.13-10.59-45.56-2.88-17.8-4.07-35.75-4.92-53.73h0s-81.99,0-81.99,0c2.98,49.91,22,92.44,57.75,127.52ZM333.19,343.5c35.9-35.21,55.28-77.81,58.21-128h-81.96c-.4,5.63-.82,11.19-1.19,16.76-.81,12.03-1.79,24.05-3.59,35.98-2.39,15.78-5.97,31.27-10.86,46.46-1.06,3.29-.49,3.99,3,5.66,3.04,1.45,6.01,3.05,8.84,4.88,7.64,4.93,15.17,10.02,22.74,15.05,1.59,1.06,3.18,2.12,4.81,3.21ZM391.38,198.5c0-.48.02-.75,0-1.02-.62-9.21-1.74-18.36-3.53-27.43-3.49-17.65-9.3-34.49-17.66-50.44-9.37-17.88-21.43-33.74-35.75-47.93-.69-.68-1.12-.65-1.89-.17-12.13,7.48-24.28,14.94-36.43,22.39-2.71,1.67-3.11,2.71-2.16,5.76,5.88,18.75,10.11,37.89,12.23,57.42,1.44,13.25,2.2,26.58,3.2,39.88.09,1.26.44,1.57,1.67,1.57,26.3-.03,52.6-.03,78.9-.03.43,0,.86,0,1.43,0ZM112.94,215.5c.08,1.61.17,3.08.22,4.55.49,13.5,1.68,26.94,3.61,40.31,2.46,17.06,6.21,33.82,11.45,50.25.27.85.6,1.13,1.5,1.01,11.28-1.47,22.57-2.89,33.86-4.37.75-.1,1.46-.37,2.09-.77,2.97-1.89,5.19-4.52,6.74-7.64,1.5-2.99,2.95-6.03,4.13-9.16,9.01-23.89,17.94-47.8,26.9-71.71.3-.8.6-1.61.91-2.47h-91.4ZM292.98,198.5c0-2.59.09-5.03-.01-7.45-.74-17.21-2.18-34.35-5.14-51.34-1.98-11.34-4.64-22.51-8.35-33.42-.31-.9-.69-1.22-1.67-1.21-9.47.04-18.96.26-28.42-.09-3.8-.14-5.98,1.34-7.73,4.26-.31.51-.69.99-.93,1.53-1.66,3.63-3.5,7.19-4.9,10.91-9.53,25.27-18.97,50.58-28.43,75.88-.11.29-.17.59-.26.94h85.84ZM112.98,198.5h86.2c-.22-.67-.39-1.23-.59-1.79-6.64-18.93-13.25-37.88-19.95-56.79-3.15-8.87-6.4-17.71-9.8-26.48-1-2.57-2.63-4.9-4.07-7.28-.27-.45-1.02-.85-1.56-.85-10.79-.05-21.58-.04-32.37,0-.37,0-.94.41-1.09.77-.52,1.25-.91,2.55-1.34,3.84-5.71,17.38-9.78,35.14-12.24,53.25-1.26,9.29-1.95,18.66-2.83,28-.23,2.41-.24,4.84-.36,7.34ZM293.27,215.5h-78.34c.15.43.26.77.38,1.11,5.96,17.02,11.89,34.04,17.91,51.04,3.33,9.4,6.76,18.77,10.26,28.1,1.16,3.09,2.54,6.15,4.8,8.64,1.49,1.64,3.18,2.94,5.56,3.19,4.88.51,9.76,1.12,14.63,1.78,3.12.42,6.22.99,9.44,1.51,10.05-30.94,14.34-62.83,15.36-95.38ZM195.25,18.33c-1.61.74-3.07,1.37-4.49,2.08-4.46,2.22-9.09,4.17-13.32,6.77-9.22,5.67-16.48,13.46-22.73,22.22-6.11,8.54-11,17.77-15.49,27.23-1.67,3.53-3.38,7.04-5.09,10.62.35.16.63.31.92.42,2.73,1,5.45,2.05,8.21,2.98,13.78,4.69,27.91,7.75,42.41,9.04,3.16.28,6.36.04,9.6.04V18.33ZM211.25,395.56c1.62-.75,3.18-1.42,4.71-2.18,4.32-2.14,8.81-4.02,12.91-6.54,9.82-6.05,17.43-14.42,23.97-23.83,6.06-8.72,10.86-18.14,15.4-27.71,1.36-2.87,2.75-5.74,4.12-8.6-11.26-6.04-50.2-14.33-61.1-13.02v81.88ZM271.97,87.42c-.14-.41-.23-.75-.38-1.07-2.96-6.37-5.72-12.83-8.92-19.07-6.33-12.34-14.23-23.58-24.49-33.04-5.83-5.37-12.08-10.11-19.66-12.76-2.35-.82-4.78-1.39-7.27-2.1v80.95c21.01-.84,41.18-5.19,60.72-12.92ZM194.25,394.62v-81.25c-5.64.55-11.18.93-16.68,1.64-14.47,1.86-28.49,5.55-42.12,10.72-1.6.61-1.82.8-1.03,2.54,2.59,5.74,5.06,11.55,7.91,17.17,6.38,12.59,14.38,24.03,24.65,33.82,5.48,5.22,11.47,9.69,18.57,12.49,2.8,1.1,5.72,1.9,8.71,2.87ZM209.31,184.58c.26-.64.42-.99.55-1.36,5.76-15.73,11.53-31.46,17.29-47.19,2.22-6.07,4.63-12.08,5.86-18.45.75-3.89.65-7.71-1.11-11.36-.28-.58-.58-.91-1.34-.91-13.63.03-27.25.01-40.88.05-.49,0-1.14.36-1.43.76-1.46,2.01-2.23,4.33-1.88,6.77.38,2.66.98,5.33,1.82,7.89,4.25,13.05,8.59,26.06,12.91,39.08,2.7,8.14,5.4,16.28,8.2,24.71ZM203.51,225.54c-.24.58-.37.87-.48,1.16-5.89,16.07-11.77,32.14-17.66,48.21-2.15,5.88-4.44,11.72-5.62,17.9-.72,3.78-.52,7.46,1.1,11.02.3.66.68.86,1.39.76,3.28-.45,6.57-.84,9.86-1.29,4.51-.62,9.04-1.27,13.6-.87,5.77.5,11.53,1.1,17.28,1.78,1.31.16,1.84-.33,2.34-1.37,1.7-3.51,1.41-7.06.24-10.61-5.66-17.16-11.34-34.32-17.02-51.48-1.65-5-3.3-9.99-5.03-15.21ZM85.43,60.29c11.37,7.21,22.34,14.17,33.39,21.17,8.33-20.42,18.62-39.43,34.23-55.54-1.04.13-1.69.17-2.3.31-1.75.4-3.53.73-5.23,1.28-18.52,6.01-35.59,14.91-51.57,25.96-2.91,2.01-5.54,4.41-8.52,6.81ZM287.4,332.41c-8.2,20.27-18.44,39.2-33.3,55.37,12.27-3.13,23.96-7.63,35.18-13.39,11.23-5.78,21.73-12.68,31.71-20.62-11.27-7.17-22.35-14.21-33.58-21.36ZM118.79,332.41c-11.27,7.18-22.36,14.25-33.55,21.38,20.12,15.9,42.13,27.58,66.86,33.96-14.87-16.15-25.02-35.11-33.31-55.34ZM321.03,60.13c-20.07-15.87-42.07-27.57-66.84-33.91,14.87,16.12,24.96,35.1,33.25,55.26,11.26-7.16,22.38-14.22,33.59-21.35Z"/>
      <path class="cls-2" d="M72.57,71.07c5.98,3.67,11.86,7.29,17.75,10.89,6.88,4.2,13.78,8.38,20.67,12.57,2.06,1.25,2.17,1.69,1.63,4.01-3.4,14.65-7.05,29.25-10.05,43.98-1.72,8.47-2.53,17.14-3.5,25.74-1.12,9.92-1.96,19.87-2.93,29.81-.01.11-.06.22-.11.42H14.85c2.9-49.85,22.04-92.29,57.72-127.43Z"/>
      <path class="cls-2" d="M72.57,343.02c-35.76-35.08-54.77-77.62-57.75-127.52h81.99s0,0,0,0c.85,17.98,2.04,35.94,4.92,53.73,2.49,15.43,5.94,30.63,10.59,45.56.74,2.39.3,3.61-1.82,4.92-12.34,7.6-24.69,15.19-37.03,22.79-.27.17-.55.31-.9.51Z"/>
      <path class="cls-2" d="M333.19,343.5c-1.63-1.09-3.21-2.15-4.81-3.21-7.57-5.03-15.11-10.12-22.74-15.05-2.83-1.83-5.8-3.43-8.84-4.88-3.5-1.67-4.06-2.37-3-5.66,4.89-15.19,8.47-30.68,10.86-46.46,1.8-11.94,2.78-23.95,3.59-35.98.37-5.57.79-11.13,1.19-16.76h81.96c-2.93,50.19-22.31,92.8-58.21,128Z"/>
      <path class="cls-2" d="M391.38,198.5c-.56,0-1,0-1.43,0-26.3,0-52.6,0-78.9.03-1.23,0-1.57-.31-1.67-1.57-.99-13.3-1.76-26.63-3.2-39.88-2.12-19.53-6.34-38.66-12.23-57.42-.96-3.05-.56-4.1,2.16-5.76,12.15-7.46,24.3-14.91,36.43-22.39.77-.47,1.2-.51,1.89.17,14.32,14.19,26.38,30.06,35.75,47.93,8.36,15.95,14.17,32.79,17.66,50.44,1.79,9.06,2.91,18.21,3.53,27.43.02.27,0,.55,0,1.02Z"/>
      <path class="cls-2" d="M112.94,215.5h91.4c-.32.86-.61,1.66-.91,2.47-8.96,23.91-17.89,47.82-26.9,71.71-1.18,3.13-2.63,6.17-4.13,9.16-1.56,3.11-3.77,5.74-6.74,7.64-.63.4-1.35.67-2.09.77-11.28,1.48-22.57,2.9-33.86,4.37-.9.12-1.23-.16-1.5-1.01-5.24-16.43-8.99-33.19-11.45-50.25-1.93-13.37-3.12-26.81-3.61-40.31-.05-1.47-.14-2.95-.22-4.55Z"/>
      <path class="cls-2" d="M292.98,198.5h-85.84c.1-.35.15-.65.26-.94,9.46-25.3,18.9-50.61,28.43-75.88,1.4-3.72,3.24-7.28,4.9-10.91.25-.54.63-1.02.93-1.53,1.76-2.91,3.94-4.4,7.73-4.26,9.46.35,18.94.13,28.42.09.98,0,1.36.31,1.67,1.21,3.71,10.91,6.37,22.08,8.35,33.42,2.96,16.99,4.39,34.13,5.14,51.34.1,2.43.01,4.86.01,7.45Z"/>
      <path class="cls-2" d="M112.98,198.5c.12-2.5.13-4.93.36-7.34.89-9.34,1.57-18.71,2.83-28,2.46-18.11,6.54-35.87,12.24-53.25.42-1.29.81-2.59,1.34-3.84.15-.36.71-.76,1.09-.77,10.79-.04,21.58-.05,32.37,0,.53,0,1.28.4,1.56.85,1.44,2.38,3.08,4.71,4.07,7.28,3.4,8.77,6.65,17.61,9.8,26.48,6.71,18.91,13.31,37.85,19.95,56.79.19.56.37,1.12.59,1.79h-86.2Z"/>
      <path class="cls-2" d="M293.27,215.5c-1.02,32.55-5.31,64.44-15.36,95.38-3.22-.52-6.32-1.09-9.44-1.51-4.87-.65-9.74-1.26-14.63-1.78-2.38-.25-4.08-1.56-5.56-3.19-2.27-2.49-3.64-5.55-4.8-8.64-3.5-9.34-6.93-18.7-10.26-28.1-6.02-17-11.94-34.02-17.91-51.04-.12-.34-.23-.67-.38-1.11h78.34Z"/>
      <path class="cls-2" d="M195.25,18.33v81.4c-3.24,0-6.44.24-9.6-.04-14.5-1.28-28.63-4.35-42.41-9.04-2.76-.94-5.48-1.98-8.21-2.98-.29-.11-.56-.26-.92-.42,1.72-3.58,3.42-7.09,5.09-10.62,4.49-9.46,9.39-18.69,15.49-27.23,6.26-8.76,13.51-16.56,22.73-22.22,4.23-2.6,8.86-4.55,13.32-6.77,1.42-.71,2.88-1.34,4.49-2.08Z"/>
      <path class="cls-2" d="M211.25,395.56v-81.88c10.9-1.31,49.84,6.99,61.1,13.02-1.37,2.86-2.75,5.73-4.12,8.6-4.54,9.56-9.34,18.99-15.4,27.71-6.54,9.41-14.15,17.79-23.97,23.83-4.09,2.52-8.58,4.4-12.91,6.54-1.53.76-3.09,1.43-4.71,2.18Z"/>
      <path class="cls-2" d="M271.97,87.42c-19.54,7.73-39.71,12.08-60.72,12.92V19.38c2.49.71,4.93,1.28,7.27,2.1,7.58,2.65,13.83,7.38,19.66,12.76,10.26,9.46,18.15,20.7,24.49,33.04,3.2,6.24,5.97,12.71,8.92,19.07.15.32.24.66.38,1.07Z"/>
      <path class="cls-2" d="M194.25,394.62c-2.99-.97-5.91-1.77-8.71-2.87-7.09-2.79-13.09-7.26-18.57-12.49-10.26-9.78-18.26-21.23-24.65-33.82-2.85-5.61-5.32-11.42-7.91-17.17-.78-1.74-.57-1.93,1.03-2.54,13.63-5.18,27.65-8.86,42.12-10.72,5.5-.71,11.04-1.1,16.68-1.64v81.25Z"/>
      <path class="cls-2" d="M209.31,184.58c-2.8-8.43-5.51-16.57-8.2-24.71-4.32-13.02-8.67-26.04-12.91-39.08-.83-2.56-1.43-5.23-1.82-7.89-.35-2.44.41-4.76,1.88-6.77.29-.4.94-.76,1.43-.76,13.63-.04,27.25-.02,40.88-.05.75,0,1.06.33,1.34.91,1.76,3.65,1.86,7.47,1.11,11.36-1.23,6.38-3.64,12.39-5.86,18.45-5.76,15.73-11.52,31.46-17.29,47.19-.13.36-.29.72-.55,1.36Z"/>
      <path class="cls-2" d="M203.51,225.54c1.73,5.22,3.38,10.22,5.03,15.21,5.68,17.16,11.36,34.31,17.02,51.48,1.17,3.55,1.46,7.1-.24,10.61-.5,1.04-1.03,1.53-2.34,1.37-5.75-.68-11.51-1.28-17.28-1.78-4.56-.4-9.09.25-13.6.87-3.28.45-6.57.84-9.86,1.29-.71.1-1.09-.11-1.39-.76-1.63-3.55-1.82-7.24-1.1-11.02,1.17-6.19,3.46-12.02,5.62-17.9,5.89-16.07,11.77-32.14,17.66-48.21.11-.3.24-.58.48-1.16Z"/>
      <path class="cls-2" d="M85.43,60.29c2.98-2.4,5.61-4.8,8.52-6.81,15.98-11.05,33.05-19.95,51.57-25.96,1.7-.55,3.48-.88,5.23-1.28.62-.14,1.26-.17,2.3-.31-15.61,16.1-25.9,35.12-34.23,55.54-11.05-7.01-22.02-13.96-33.39-21.17Z"/>
      <path class="cls-2" d="M287.4,332.41c11.24,7.15,22.32,14.19,33.58,21.36-9.98,7.94-20.47,14.84-31.71,20.62-11.21,5.77-22.91,10.26-35.18,13.39,14.86-16.17,25.09-35.1,33.3-55.37Z"/>
      <path class="cls-2" d="M118.79,332.41c8.29,20.23,18.44,39.18,33.31,55.34-24.73-6.37-46.74-18.06-66.86-33.96,11.19-7.13,22.29-14.2,33.55-21.38Z"/>
      <path class="cls-2" d="M321.03,60.13c-11.22,7.13-22.33,14.19-33.59,21.35-8.29-20.16-18.38-39.14-33.25-55.26,24.77,6.34,46.78,18.05,66.84,33.91Z"/>
    </g>
    <path class="cls-1" d="M102.36,66.35c-.2.08-.6.33-.95.75-.71.86-.73,1.91-.73,2.5,0,1.97,0,4.77.11,8.18.05,2.21.17,5.23.46,8.82.56,6.92,1.45,12.18,2.07,15.86.53,3.1,1.27,7.06,2.32,11.64,1.06,3.87,2.12,7.74,3.18,11.61,1.7,4.74,3.41,9.48,5.1,14.21,2.3,4.6,4.6,9.19,6.89,13.78,2.83,4.29,6.44,9.12,11,14.07,5.57,6.04,11.12,10.7,15.93,14.21,3,2.02,6.19,4.05,9.57,6.07,2.35,1.41,4.66,2.73,6.93,3.97,4.22,2.12,8.45,4.24,12.68,6.36,2.77,1.41,4.91,2.39,6.42,3.03.96.41,2.34.98,3.6,2.31.55.57,1.18,1.27,1.44,2.35.29,1.22-.09,2.24-.6,3.65-.28.75-.75,1.83-1.57,3-1.52,1.94-3.06,4.01-4.61,6.22-1.65,2.35-3.16,4.64-4.54,6.86-1.56,2.31-3.14,4.78-4.71,7.39-1.41,2.35-2.73,4.66-3.93,6.89-1.48,2.64-2.54,4.85-3.21,6.32-1.01,2.21-1.18,2.82-3.82,9.36-1.63,4.02-1.72,4.18-2.36,5.86-1.45,3.81-1.83,5.29-2.46,6.96-.97,2.58-2.73,6.14-6.15,10.15-2.92,3.77-5.83,7.55-8.75,11.32-5.56,6.26-11.12,12.52-16.68,18.79-5.66,6.09-11.31,12.19-16.97,18.28-3.23,3.81-6.47,7.62-9.7,11.42-1.21,1.63-3.62,5.08-2.76,6.04.2.23.88.66,4.64-1.08,2.91-1.35,7.01-3.72,11.47-8.03,3.47-2.84,6.93-5.66,10.4-8.5l14.86-13.57c4.02-3.87,8.05-7.74,12.07-11.61,4.55-4.11,5.99-4.51,6.47-4.14.56.43-.11,1.95-1.11,5.54-1.07,3.84-2.4,8.65-1.57,9.07.71.36,2.67-2.68,7.35-8.36,2.22-2.69,4.11-4.83,5.36-6.22,2.69-2.79,5.53-5.63,8.52-8.48,1.84-1.76,3.67-3.45,5.48-5.09,2.7-2.23,5.75-4.55,9.18-6.86,3-2.02,5.91-3.77,8.64-5.28,2.87-1.46,6.11-2.91,9.71-4.25,5.58-2.07,10.76-3.38,15.25-4.22,4.74-1.62,10.52-4.1,16.65-7.97,4.16-2.63,7.63-5.36,10.47-7.89,3.32-3.24,7.1-7.52,10.68-12.97,5.32-8.1,8.2-15.81,9.82-21.54,1.26-4.43,3.24-10.65,6.29-17.86,3.03-7.18,5.5-13.03,10.4-19.93,6.45-9.1,13.17-14.45,14.9-15.79,6.87-5.34,13.47-8.43,18.14-10.22,5.75-2.75,10.59-4.37,14-5.36,2.4-.69,6.18-1.67,13.86-3.82,4.87-1.37,6.92-1.97,6.86-2.32-.1-.6-6.4-.05-7.71.07-6.29.56-15.31,1.91-26.89,5.43-3.93,1.07-7.86,2.14-11.78,3.21-1.74.68-4.09,1.23-6.15.25-1.52-.73-1.97-1.87-3.07-3.29-3.32-4.23-8.4-5.51-9.79-5.86-3.48-.88-6.2-.28-10.12.57,0,0-9.8,2.14-17.71,8.8-2.67,2.25-3.61,3.14-3.61,3.14-2.81,2.66-3.2,3.56-4.11,3.57-1.45.02-2.46-2.19-5.1-8.33-4.52-10.5-5.28-12.68-6-14.97-.88-2.82-1.5-5.18-1.89-6.79-2.03-8.12-4.42-14.3-6.32-18.57-.95-2.12-1-2.05-6.43-13.64-1.1-2.35-2.24-4.69-3.36-7.03-4.69-9.88-5.34-11.47-6.49-11.51-2.66-.11-5.05,8.27-6.02,12.05-1.2,4.65-2.4,9.31-3.61,13.96-1.39,6.99-2.46,12.3-3.11,15.47-.92,4.53-1.74,8.51-2.18,14.03-.4,5.1-.15,7.5.36,9.68.33,1.41,1.13,4.66,3.47,8,1.12,1.6,2.37,2.89,3.88,4.47,1.08,1.13,2.33,2.33,4.22,4.38,1.4,1.52,2.1,2.28,2,2.39-.35.44-8.69-5.79-9.5-6.39-8.59-6.42-12.7-10.22-18.07-14.61-5.24-4.29-11.48-8.62-23.97-17.29-10.15-7.05-12.13-8.12-17.79-12.47-6.8-5.23-12.04-9.91-15.39-13.04-1.68-1.43-4.01-3.47-6.71-6-1.04-.97-3.28-3.09-6.11-5.97-6.69-6.8-10.03-10.2-10.61-10.82-1.45-1.58-4.69-5.14-6.32-4.43h-.02Z"/>
  </g>
</svg>